<?xml version="1.0" encoding="iso-8859-1"?>
<!-- Generator: Adobe Illustrator 19.0.0, SVG Export Plug-In . SVG Version: 6.00 Build 0)  -->
<svg version="1.1" id="Capa_1" xmlns="http://www.w3.org/2000/svg" xmlns:xlink="http://www.w3.org/1999/xlink" x="0px" y="0px"
	 viewBox="0 0 490.667 490.667" style="enable-background:new 0 0 490.667 490.667;" xml:space="preserve">
<path style="fill:#455A64;" d="M297.856,249.408c1.649-3.989,0.731-8.579-2.325-11.627l-85.333-85.333
	c-4.237-4.092-10.99-3.975-15.083,0.262c-3.992,4.134-3.992,10.687,0,14.82l67.136,67.136H10.667C4.776,234.667,0,239.442,0,245.333
	C0,251.224,4.776,256,10.667,256h251.584l-67.136,67.115c-4.237,4.093-4.355,10.845-0.262,15.083
	c4.093,4.237,10.845,4.354,15.083,0.262c0.089-0.086,0.176-0.173,0.262-0.262l85.333-85.333
	C296.525,251.876,297.316,250.702,297.856,249.408z"/>
<path style="fill:#64B5F6;" d="M437.333,0H202.667c-29.455,0-53.333,23.878-53.333,53.333v160h61.419l-30.72-30.699
	c-12.712-12.278-13.064-32.536-0.786-45.248c12.278-12.712,32.536-13.064,45.248-0.786c0.267,0.257,0.529,0.52,0.786,0.786
	l85.333,85.333c12.501,12.493,12.507,32.754,0.015,45.255c-0.005,0.005-0.01,0.01-0.015,0.014l-85.333,85.333
	c-12.278,12.712-32.536,13.064-45.248,0.786c-12.712-12.278-13.064-32.536-0.786-45.248c0.257-0.267,0.52-0.529,0.786-0.786
	l30.72-30.741h-61.419v160c0,29.455,23.878,53.333,53.333,53.333h234.667c29.455,0,53.333-23.878,53.333-53.333v-384
	C490.667,23.878,466.789,0,437.333,0z"/>
<g>
</g>
<g>
</g>
<g>
</g>
<g>
</g>
<g>
</g>
<g>
</g>
<g>
</g>
<g>
</g>
<g>
</g>
<g>
</g>
<g>
</g>
<g>
</g>
<g>
</g>
<g>
</g>
<g>
</g>
</svg>
